<svg width="56" height="56" viewBox="0 0 56 56" fill="none" xmlns="http://www.w3.org/2000/svg">
<path fill-rule="evenodd" clip-rule="evenodd" d="M27.9999 9.33512C24.2597 9.33512 21.2277 12.3672 21.2277 16.1073C21.2277 19.8475 24.2597 22.8796 27.9999 22.8796C31.7401 22.8796 34.7722 19.8475 34.7722 16.1073C34.7722 12.3672 31.7401 9.33512 27.9999 9.33512ZM16.561 16.1073C16.561 9.78982 21.6824 4.66846 27.9999 4.66846C34.3175 4.66846 39.4388 9.78982 39.4388 16.1073C39.4388 22.4249 34.3175 27.5462 27.9999 27.5462C21.6824 27.5462 16.561 22.4249 16.561 16.1073Z" fill="#313292"/>
<path fill-rule="evenodd" clip-rule="evenodd" d="M22.2081 35.9118C15.0973 35.9118 9.33317 41.6759 9.33317 48.7867V48.9993C9.33317 50.288 8.2885 51.3327 6.99984 51.3327C5.71117 51.3327 4.6665 50.288 4.6665 48.9993V48.7867C4.6665 39.0986 12.52 31.2451 22.2081 31.2451H33.7915C43.4797 31.2451 51.3332 39.0986 51.3332 48.7867V48.9993C51.3332 50.288 50.2885 51.3327 48.9998 51.3327C47.7112 51.3327 46.6665 50.288 46.6665 48.9993V48.7867C46.6665 41.6759 40.9024 35.9118 33.7915 35.9118H22.2081Z" fill="#313292"/>
</svg>
