<svg width="64" height="65" viewBox="0 0 64 65" fill="none" xmlns="http://www.w3.org/2000/svg">
<g clip-path="url(#clip0)">
<path d="M54.6661 10.1745C55.6861 11.1945 55.6847 12.8479 54.6661 13.8672L50.8181 17.7172C49.7987 18.7365 48.1441 18.7365 47.1254 17.7172L47.0474 17.6392C46.0274 16.6192 46.0274 14.9652 47.0461 13.9459L50.8954 10.0965C51.9147 9.0772 53.5694 9.0772 54.5881 10.0965L54.6661 10.1745Z" fill="#0B0B0C"/>
<path d="M32.0553 0.763672C33.4973 0.763672 34.6666 1.93301 34.6666 3.37501V8.81901C34.6666 10.261 33.4973 11.4303 32.0553 11.4303H31.9446C30.5026 11.4303 29.3333 10.261 29.3333 8.81901V3.37501C29.3333 1.93301 30.5026 0.763672 31.9446 0.763672H32.0553Z" fill="#0B0B0C"/>
<path d="M16.9147 13.9077C17.956 14.9491 17.956 16.6377 16.9147 17.6791C15.8734 18.7204 14.1847 18.7204 13.144 17.6791L9.37337 13.9084C8.33204 12.8671 8.33204 11.1777 9.3727 10.1364C10.414 9.09505 12.1027 9.09505 13.144 10.1371L16.9147 13.9077Z" fill="#0B0B0C"/>
<path d="M8 30.0977C9.47267 30.0977 10.6667 31.2917 10.6667 32.7643C10.6667 34.237 9.47267 35.431 8 35.431H2.66667C1.194 35.431 0 34.237 0 32.7643C0 31.2917 1.194 30.0977 2.66667 30.0977H8Z" fill="#0B0B0C"/>
<path d="M16.9546 47.8883C17.9746 48.9076 17.974 50.5603 16.9546 51.5796L13.1033 55.4296C12.0846 56.4489 10.4313 56.4489 9.41195 55.4296L9.33262 55.3509C8.31328 54.3323 8.31328 52.6783 9.33262 51.6589L13.1826 47.8089C14.202 46.7903 15.856 46.7903 16.8753 47.8089L16.9546 47.8883Z" fill="#0B0B0C"/>
<path d="M32.0559 54.0977C33.4979 54.0977 34.6666 55.267 34.6666 56.7083V62.1537C34.6666 63.595 33.4979 64.7643 32.0559 64.7643H31.9439C30.5019 64.7643 29.3333 63.595 29.3333 62.1537V56.7083C29.3333 55.267 30.5019 54.0977 31.9439 54.0977H32.0559Z" fill="#0B0B0C"/>
<path d="M54.6661 51.6588C55.6847 52.6781 55.6861 54.3321 54.6661 55.3514L54.5881 55.4294C53.5694 56.4488 51.9147 56.4488 50.8954 55.4294L47.0461 51.5808C46.0274 50.5614 46.0274 48.9068 47.0474 47.8868L47.1241 47.8101C48.1441 46.7901 49.7987 46.7901 50.8181 47.8088L54.6661 51.6588Z" fill="#0B0B0C"/>
<path d="M61.3886 30.0977C62.8306 30.0977 63.9999 31.267 63.9999 32.709V32.819C63.9999 34.2617 62.8306 35.431 61.3886 35.431H55.9446C54.5026 35.431 53.3333 34.2617 53.3333 32.8197V32.7097C53.3333 31.267 54.5026 30.0977 55.9446 30.0977H61.3886Z" fill="#0B0B0C"/>
<path d="M16 32.7637C16 41.6003 23.1633 48.7637 32 48.7637C40.8367 48.7637 48 41.6003 48 32.7637C48 23.927 40.8367 16.7637 32 16.7637C23.1633 16.7637 16 23.927 16 32.7637ZM42.6667 32.7637C42.6667 38.6543 37.8913 43.4303 32 43.4303C26.1093 43.4303 21.3333 38.6543 21.3333 32.7637C21.3333 26.8723 26.1093 22.097 32 22.097C37.8913 22.097 42.6667 26.8723 42.6667 32.7637Z" fill="#0B0B0C"/>
</g>
<defs>
<clipPath id="clip0">
<rect width="64" height="64" fill="white" transform="translate(0 0.763672)"/>
</clipPath>
</defs>
</svg>
