<svg width="47" height="47" viewBox="0 0 47 47" fill="none" xmlns="http://www.w3.org/2000/svg">
<path d="M37.1666 33.1416C37.0061 33.3394 36.905 33.5787 36.8751 33.8317C36.8452 34.0847 36.8877 34.3409 36.9977 34.5707C37.1077 34.8005 37.2806 34.9944 37.4963 35.1298C37.7121 35.2652 37.9618 35.3367 38.2166 35.3358C38.4177 35.3365 38.6164 35.2921 38.7981 35.2059C38.9798 35.1197 39.1399 34.9939 39.2666 34.8377C41.9346 31.4889 43.3875 27.3339 43.3875 23.0522C43.3875 18.7705 41.9346 14.6155 39.2666 11.2667C39.1555 11.1285 39.0181 11.0135 38.8625 10.9284C38.7068 10.8434 38.5359 10.79 38.3595 10.7712C38.1831 10.7524 38.0048 10.7687 37.8347 10.8191C37.6646 10.8695 37.5062 10.953 37.3685 11.0648C37.0932 11.2889 36.9175 11.6126 36.8796 11.9656C36.8418 12.3185 36.9449 12.6721 37.1666 12.9494C39.4605 15.8145 40.7103 19.3753 40.7103 23.0455C40.7103 26.7157 39.4605 30.2765 37.1666 33.1416ZM32.5089 16.9879C32.4002 16.8482 32.3201 16.6885 32.2731 16.5179C32.2261 16.3472 32.2131 16.169 32.235 15.9934C32.2569 15.8178 32.3131 15.6482 32.4005 15.4943C32.488 15.3404 32.6048 15.2052 32.7445 15.0965C32.8841 14.9878 33.0438 14.9077 33.2145 14.8607C33.3851 14.8137 33.5633 14.8007 33.7389 14.8226C33.9146 14.8445 34.0842 14.9007 34.2381 14.9881C34.3919 15.0756 34.5271 15.1924 34.6358 15.3321C36.3704 17.5522 37.3127 20.2887 37.3127 23.1061C37.3127 25.9235 36.3704 28.6599 34.6358 30.8801C34.5104 31.043 34.3494 31.175 34.165 31.266C33.9807 31.357 33.778 31.4046 33.5724 31.4051C33.3212 31.4045 33.0752 31.3336 32.8622 31.2005C32.6493 31.0674 32.4777 30.8774 32.3671 30.6519C32.2565 30.4264 32.2111 30.1745 32.2362 29.9246C32.2612 29.6747 32.3557 29.4368 32.5089 29.2378C33.8867 27.4831 34.6355 25.3168 34.6355 23.0859C34.6355 20.855 33.8867 18.6887 32.5089 16.934V16.9879ZM3.0149 19.1148V26.9762C3.01846 27.6594 3.29234 28.3133 3.77666 28.7951C4.26098 29.2769 4.91635 29.5474 5.5995 29.5474H9.43601L24.7821 36.8839C25.1328 37.0437 25.5139 37.1263 25.8994 37.1262C26.3747 37.1172 26.8391 36.9825 27.2455 36.7358C27.6151 36.5041 27.9199 36.1826 28.1318 35.8013C28.3436 35.42 28.4555 34.9912 28.457 34.555V11.536C28.4532 11.1005 28.3399 10.6731 28.1277 10.2928C27.9155 9.91257 27.6111 9.59177 27.2425 9.3599C26.8739 9.12803 26.453 8.99252 26.0183 8.96582C25.5837 8.93913 25.1493 9.02211 24.7551 9.20714L9.40909 16.5436H5.57258C4.8941 16.5507 4.24561 16.8243 3.76709 17.3053C3.28857 17.7863 3.0184 18.4363 3.0149 19.1148ZM11.0918 27.3532V18.7378L25.7917 11.7244V34.3666L11.0918 27.3532ZM5.70719 19.2763H8.39948V26.8955H5.70719V19.2763Z" fill="#0B0B0C" stroke="#0B0B0C"/>
</svg>
