<svg width="56" height="56" viewBox="0 0 56 56" fill="none" xmlns="http://www.w3.org/2000/svg">
<path d="M45.5 37.625L43.75 35C40.95 30.8 39.55 25.725 39.55 20.65C39.55 15.225 36.05 10.675 31.325 9.275C30.8 7.875 29.4 7 28 7C26.6 7 25.2 7.875 24.675 9.275C19.95 10.675 16.45 15.225 16.45 20.65C16.45 25.725 15.05 30.8 12.25 35L10.5 37.625C9.79996 38.85 10.5 40.25 11.9 40.25H43.925C45.325 40.25 46.2 38.675 45.5 37.625Z" stroke="#313292" stroke-width="5" stroke-miterlimit="10" stroke-linejoin="round"/>
<path d="M33.25 45.5C33.25 48.475 30.975 50.75 28 50.75C25.025 50.75 22.75 48.475 22.75 45.5" stroke="#313292" stroke-width="5" stroke-miterlimit="10" stroke-linejoin="round"/>
</svg>
