<svg width="56" height="57" viewBox="0 0 56 57" fill="none" xmlns="http://www.w3.org/2000/svg">
<path d="M44.3333 9.7404H39.6667V7.40706C39.6667 6.78823 39.4208 6.19473 38.9832 5.75715C38.5457 5.31956 37.9522 5.07373 37.3333 5.07373C36.7145 5.07373 36.121 5.31956 35.6834 5.75715C35.2458 6.19473 35 6.78823 35 7.40706V9.7404H21V7.40706C21 6.78823 20.7542 6.19473 20.3166 5.75715C19.879 5.31956 19.2855 5.07373 18.6667 5.07373C18.0478 5.07373 17.4543 5.31956 17.0167 5.75715C16.5792 6.19473 16.3333 6.78823 16.3333 7.40706V9.7404H11.6667C9.81014 9.7404 8.02966 10.4779 6.71691 11.7907C5.40415 13.1034 4.66666 14.8839 4.66666 16.7404V44.7404C4.66666 46.5969 5.40415 48.3774 6.71691 49.6901C8.02966 51.0029 9.81014 51.7404 11.6667 51.7404H44.3333C46.1898 51.7404 47.9703 51.0029 49.2831 49.6901C50.5958 48.3774 51.3333 46.5969 51.3333 44.7404V16.7404C51.3333 14.8839 50.5958 13.1034 49.2831 11.7907C47.9703 10.4779 46.1898 9.7404 44.3333 9.7404ZM46.6667 44.7404C46.6667 45.3592 46.4208 45.9527 45.9832 46.3903C45.5457 46.8279 44.9522 47.0737 44.3333 47.0737H11.6667C11.0478 47.0737 10.4543 46.8279 10.0167 46.3903C9.57916 45.9527 9.33332 45.3592 9.33332 44.7404V28.4071H46.6667V44.7404ZM46.6667 23.7404H9.33332V16.7404C9.33332 16.1216 9.57916 15.5281 10.0167 15.0905C10.4543 14.6529 11.0478 14.4071 11.6667 14.4071H16.3333V16.7404C16.3333 17.3592 16.5792 17.9527 17.0167 18.3903C17.4543 18.8279 18.0478 19.0737 18.6667 19.0737C19.2855 19.0737 19.879 18.8279 20.3166 18.3903C20.7542 17.9527 21 17.3592 21 16.7404V14.4071H35V16.7404C35 17.3592 35.2458 17.9527 35.6834 18.3903C36.121 18.8279 36.7145 19.0737 37.3333 19.0737C37.9522 19.0737 38.5457 18.8279 38.9832 18.3903C39.4208 17.9527 39.6667 17.3592 39.6667 16.7404V14.4071H44.3333C44.9522 14.4071 45.5457 14.6529 45.9832 15.0905C46.4208 15.5281 46.6667 16.1216 46.6667 16.7404V23.7404Z" fill="#313292"/>
</svg>
