<svg width="72" height="72" viewBox="0 0 72 72" fill="none" xmlns="http://www.w3.org/2000/svg">
<path d="M27.4648 63C28.3919 63 29.1434 62.2445 29.1434 61.3125C29.1434 60.3805 28.3919 59.625 27.4648 59.625C26.5377 59.625 25.7861 60.3805 25.7861 61.3125C25.7861 62.2445 26.5377 63 27.4648 63Z" fill="#888992" stroke="#888992" stroke-width="5" stroke-miterlimit="10" stroke-linecap="round" stroke-linejoin="round"/>
<path d="M50.9657 63C51.8928 63 52.6444 62.2445 52.6444 61.3125C52.6444 60.3805 51.8928 59.625 50.9657 59.625C50.0387 59.625 49.2871 60.3805 49.2871 61.3125C49.2871 62.2445 50.0387 63 50.9657 63Z" fill="#888992" stroke="#888992" stroke-width="5" stroke-miterlimit="10" stroke-linecap="round" stroke-linejoin="round"/>
<path d="M9 9H15.7145L22.4291 49.5H56.0018L62.7163 19.125H19.0718" stroke="#888992" stroke-width="5" stroke-linecap="round" stroke-linejoin="round"/>
</svg>
