<svg width="39" height="39" viewBox="0 0 39 39" fill="none" xmlns="http://www.w3.org/2000/svg">
<path d="M31.0713 19.7789C31.0713 19.0013 30.449 18.3715 29.682 18.3715H21.18V9.88203V9.88176C21.18 9.10162 20.547 8.46886 19.7673 8.46886C18.9872 8.46886 18.3542 9.10162 18.3542 9.88176V19.7734C18.3542 20.5538 18.9872 21.1865 19.7673 21.1865H29.6828C30.449 21.1865 31.0713 20.5564 31.0713 19.7789ZM35.3142 19.77C35.3142 28.3563 28.3547 35.3168 19.7702 35.3168C11.1852 35.3168 4.22624 28.3563 4.22624 19.77C4.22624 11.1837 11.1852 4.2231 19.7702 4.2231C28.3547 4.2231 35.3142 11.1837 35.3142 19.77ZM38.1366 19.77C38.1366 9.62625 29.9137 1.40332 19.7702 1.40332C9.62625 1.40332 1.40332 9.62625 1.40332 19.77C1.40332 29.9137 9.62625 38.1366 19.7702 38.1366C29.9137 38.1366 38.1366 29.9137 38.1366 19.77Z" fill="black" stroke="black"/>
</svg>
