<svg width="28" height="28" viewBox="0 0 28 28" fill="none" xmlns="http://www.w3.org/2000/svg">
<path d="M17.3144 14.0314L26.5917 4.75407C27.032 4.31454 27.2797 3.71811 27.2802 3.09598C27.2808 2.47385 27.0342 1.87698 26.5946 1.43668C26.1551 0.996382 25.5587 0.748715 24.9366 0.748166C24.3144 0.747616 23.7176 0.994229 23.2773 1.43375L13.9999 10.7111L4.72257 1.43375C4.28227 0.993452 3.68509 0.746094 3.06242 0.746094C2.43974 0.746094 1.84256 0.993452 1.40226 1.43375C0.961958 1.87405 0.7146 2.47123 0.7146 3.09391C0.7146 3.71659 0.961958 4.31377 1.40226 4.75407L10.6796 14.0314L1.40226 23.3088C0.961958 23.7491 0.7146 24.3462 0.7146 24.9689C0.7146 25.5916 0.961958 26.1888 1.40226 26.6291C1.84256 27.0694 2.43974 27.3167 3.06242 27.3167C3.68509 27.3167 4.28227 27.0694 4.72257 26.6291L13.9999 17.3517L23.2773 26.6291C23.7176 27.0694 24.3147 27.3167 24.9374 27.3167C25.5601 27.3167 26.1573 27.0694 26.5976 26.6291C27.0379 26.1888 27.2852 25.5916 27.2852 24.9689C27.2852 24.3462 27.0379 23.7491 26.5976 23.3088L17.3144 14.0314Z" fill="#888992"/>
</svg>
