<svg width="102" height="102" viewBox="0 0 102 102" fill="none" xmlns="http://www.w3.org/2000/svg">
<path fill-rule="evenodd" clip-rule="evenodd" d="M75.1334 13.5755C75.1334 8.51126 74.6367 8.50586 69.4023 8.50586H32.6084C27.3795 8.50586 26.8664 8.51126 26.8664 13.5755H32.0681V29.4653L15.6279 85.2905C15.6279 90.3655 19.869 94.4731 25.1034 94.4731H76.8964C82.1254 94.4731 86.3719 90.3655 86.3719 85.2905L70.0627 29.3032L69.9863 13.5755H75.1334ZM80.8536 81.8747C82.3328 86.6525 79.7456 89.6305 73.0375 89.6305H29.5082C21.8612 89.6305 19.9836 86.4255 21.692 81.8747L36.8986 29.7085L36.8386 13.4241H64.8119V29.5788L80.8536 81.8747Z" fill="#888992" stroke="#888992"/>
<path fill-rule="evenodd" clip-rule="evenodd" d="M59.4028 40.9316H42.919L32.8868 75.0245C30.9491 81.2399 31.5768 83.5856 40.572 83.5856H61.7444C70.6576 83.5856 70.8596 80.7859 69.435 75.0245L59.4028 40.9316Z" fill="#888992"/>
</svg>
