<svg width="150" height="150" viewBox="0 0 150 150" fill="none" xmlns="http://www.w3.org/2000/svg">
<path d="M128.036 112.129H22.9072C18.1243 112.129 14.2503 108.646 14.2503 104.344V45.0115C14.2503 40.7142 18.1243 37.2266 22.9072 37.2266H128.036C132.819 37.2266 136.693 40.7142 136.693 45.0115V104.341C136.693 108.642 132.819 112.129 128.036 112.129Z" fill="#4B9FD8"/>
<path d="M70.1739 37.2266C43.1644 55.6379 24.1626 79.2263 14.337 105.111C14.2937 104.8 14.2504 104.488 14.2504 104.138V44.8169C14.2504 41.119 17.1072 38.0051 20.9595 37.2266H70.1739Z" fill="#3A9BD6"/>
<path opacity="0.9" d="M95.7554 67.8684C100.992 67.8684 105.237 63.6231 105.237 58.3863C105.237 53.1496 100.992 48.9043 95.7554 48.9043C90.5186 48.9043 86.2734 53.1496 86.2734 58.3863C86.2734 63.6231 90.5186 67.8684 95.7554 67.8684Z" fill="#FEE218"/>
<path opacity="0.9" d="M109.371 67.8684C114.608 67.8684 118.853 63.6231 118.853 58.3863C118.853 53.1496 114.608 48.9043 109.371 48.9043C104.134 48.9043 99.8892 53.1496 99.8892 58.3863C99.8892 63.6231 104.134 67.8684 109.371 67.8684Z" fill="#CD494C"/>
<path d="M50.362 81.2947H29.788C27.3875 81.2947 25.4393 79.5548 25.4393 77.4022C25.4393 75.2497 27.3875 73.5098 29.788 73.5098H50.362C52.7625 73.5098 54.7108 75.2497 54.7108 77.4022C54.7108 79.5509 52.7625 81.2947 50.362 81.2947Z" fill="white"/>
<path d="M68.7399 61.3162H29.788C27.3875 61.3162 25.4393 59.5763 25.4393 57.4237C25.4393 55.2712 27.3875 53.5312 29.788 53.5312H68.7399C71.1404 53.5312 73.0887 55.2712 73.0887 57.4237C73.0887 59.5763 71.1404 61.3162 68.7399 61.3162Z" fill="white"/>
<path d="M42.5256 101.271H29.7838C27.3832 101.271 25.435 99.5313 25.435 97.3788C25.435 95.2263 27.3832 93.4863 29.7838 93.4863H42.5256C44.9261 93.4863 46.8744 95.2263 46.8744 97.3788C46.8744 99.5274 44.9305 101.271 42.5256 101.271Z" fill="#8BD5EC"/>
<path d="M68.7399 101.271H55.9981C53.5975 101.271 51.6493 99.5313 51.6493 97.3788C51.6493 95.2263 53.5975 93.4863 55.9981 93.4863H68.7399C71.1404 93.4863 73.0887 95.2263 73.0887 97.3788C73.0887 99.5274 71.1404 101.271 68.7399 101.271Z" fill="#DAEFF6"/>
<path d="M94.9498 101.271H82.2079C79.8074 101.271 77.8591 99.5313 77.8591 97.3788C77.8591 95.2263 79.8074 93.4863 82.2079 93.4863H94.9498C97.3503 93.4863 99.2985 95.2263 99.2985 97.3788C99.2985 99.5274 97.3503 101.271 94.9498 101.271Z" fill="#8BD5EC"/>
<path d="M121.16 101.271H108.418C106.017 101.271 104.069 99.5313 104.069 97.3788C104.069 95.2263 106.017 93.4863 108.418 93.4863H121.16C123.56 93.4863 125.509 95.2263 125.509 97.3788C125.509 99.5274 123.56 101.271 121.16 101.271Z" fill="#DAEFF6"/>
</svg>
