<svg width="148" height="148" viewBox="0 0 148 148" fill="none" xmlns="http://www.w3.org/2000/svg">
<path d="M125.943 37.6953H23.0006C18.4688 37.6953 14.795 41.0995 14.795 45.2989V101.98C14.795 106.179 18.4688 109.583 23.0006 109.583H125.943C130.475 109.583 134.149 106.179 134.149 101.98V45.2989C134.149 41.0995 130.475 37.6953 125.943 37.6953Z" fill="#0296E5"/>
<path d="M30.233 48.7559H52.3524V65.3454H30.233V48.7559Z" fill="#FBB540"/>
<path d="M38.5278 48.7559V54.2857H30.233V59.8156H38.5278V65.3454H44.0577V48.7559H38.5278Z" fill="#D18D28"/>
<path d="M102.121 68.1095C102.854 68.1095 103.558 67.8182 104.076 67.2997C104.595 66.7811 104.886 66.0779 104.886 65.3446V63.2018C104.893 61.1542 104.335 59.1445 103.274 57.3932C102.213 55.6419 100.69 54.2168 98.8723 53.2743V37.6953H93.3425V51.6195C91.4902 51.4247 89.6181 51.559 87.8126 52.0162V37.6953H82.2828V54.7864C80.9044 55.9999 79.8452 57.5334 79.1984 59.2522C78.5516 60.9709 78.3369 62.8223 78.5733 64.6435C78.8097 66.4646 79.4898 68.1998 80.554 69.6965C81.6181 71.1932 83.0336 72.4056 84.6761 73.227L96.2173 78.9988C97.1608 79.4706 97.9543 80.1957 98.5089 81.0931C99.0635 81.9904 99.3573 83.0245 99.3573 84.0794C99.3573 85.1342 99.0635 86.1683 98.5089 87.0656C97.9543 87.963 97.1608 88.6882 96.2173 89.1599C94.8086 89.8602 93.2568 90.2246 91.6837 90.2246C90.1105 90.2246 88.5588 89.8602 87.1501 89.1599C86.2042 88.6911 85.4087 87.9666 84.8537 87.0686C84.2987 86.1706 84.0065 85.135 84.0101 84.0794V81.9341C84.0101 81.2008 83.7188 80.4975 83.2003 79.979C82.6818 79.4605 81.9785 79.1692 81.2452 79.1692C80.5119 79.1692 79.8086 79.4605 79.2901 79.979C78.7716 80.4975 78.4803 81.2008 78.4803 81.9341V84.0769C78.4743 85.7629 78.8512 87.4281 79.5824 88.9472C80.3137 90.4663 81.3802 91.7996 82.7016 92.8466L82.2828 109.514L87.8105 109.653L88.1686 95.3527C89.8636 95.7434 91.6121 95.847 93.3414 95.6592V109.583H98.8713V94.0058C100.701 93.0497 102.23 91.6069 103.292 89.8365C104.353 88.0662 104.904 86.0371 104.886 83.9731C104.867 81.9091 104.278 79.8904 103.185 78.1397C102.092 76.389 100.536 74.9743 98.6895 74.0517L87.1487 68.2799C86.2051 67.8081 85.4116 67.083 84.857 66.1856C84.3024 65.2883 84.0087 64.2542 84.0087 63.1993C84.0087 62.1444 84.3024 61.1104 84.857 60.213C85.4116 59.3157 86.2051 58.5905 87.1487 58.1188C88.5574 57.4186 90.1093 57.0542 91.6825 57.0542C93.2557 57.0542 94.8075 57.4186 96.2163 58.1188C97.1624 58.5879 97.9581 59.3128 98.5131 60.2112C99.0681 61.1097 99.3602 62.1457 99.3562 63.2018V65.3446C99.3562 66.0779 99.6475 66.7811 100.166 67.2997C100.685 67.8182 101.388 68.1095 102.121 68.1095Z" fill="#0276B4"/>
<path d="M32.9981 90.2252H30.2332C29.4999 90.2252 28.7966 89.9339 28.2781 89.4153C27.7596 88.8968 27.4683 88.1935 27.4683 87.4602C27.4683 86.7269 27.7596 86.0237 28.2781 85.5051C28.7966 84.9866 29.4999 84.6953 30.2332 84.6953H32.9981C33.7314 84.6953 34.4347 84.9866 34.9532 85.5051C35.4717 86.0237 35.763 86.7269 35.763 87.4602C35.763 88.1935 35.4717 88.8968 34.9532 89.4153C34.4347 89.9339 33.7314 90.2252 32.9981 90.2252Z" fill="#0BAFEA"/>
<path d="M52.3524 90.2251H44.0577C43.3243 90.2251 42.6211 89.9338 42.1026 89.4153C41.584 88.8968 41.2927 88.1935 41.2927 87.4602C41.2927 86.7269 41.584 86.0237 42.1026 85.5051C42.6211 84.9866 43.3243 84.6953 44.0577 84.6953H52.3524C53.0857 84.6953 53.789 84.9866 54.3075 85.5051C54.8261 86.0237 55.1174 86.7269 55.1174 87.4602C55.1174 88.1935 54.8261 88.8968 54.3075 89.4153C53.789 89.9338 53.0857 90.2251 52.3524 90.2251Z" fill="#0BAFEA"/>
<path d="M68.942 90.2251H63.4121C62.6788 90.2251 61.9756 89.9338 61.457 89.4153C60.9385 88.8968 60.6472 88.1935 60.6472 87.4602C60.6472 86.7269 60.9385 86.0237 61.457 85.5051C61.9756 84.9866 62.6788 84.6953 63.4121 84.6953H68.942C69.6753 84.6953 70.3786 84.9866 70.8971 85.5051C71.4156 86.0237 71.7069 86.7269 71.7069 87.4602C71.7069 88.1935 71.4156 88.8968 70.8971 89.4153C70.3786 89.9338 69.6753 90.2251 68.942 90.2251Z" fill="#0BAFEA"/>
<path d="M44.0577 101.286H30.2331C29.4998 101.286 28.7965 100.994 28.278 100.476C27.7594 99.9574 27.4681 99.2541 27.4681 98.5208C27.4681 97.7875 27.7594 97.0842 28.278 96.5657C28.7965 96.0472 29.4998 95.7559 30.2331 95.7559H44.0577C44.791 95.7559 45.4943 96.0472 46.0128 96.5657C46.5313 97.0842 46.8226 97.7875 46.8226 98.5208C46.8226 99.2541 46.5313 99.9574 46.0128 100.476C45.4943 100.994 44.791 101.286 44.0577 101.286Z" fill="#0BAFEA"/>
<path d="M68.942 101.286H55.1173C54.384 101.286 53.6808 100.994 53.1622 100.476C52.6437 99.9574 52.3524 99.2541 52.3524 98.5208C52.3524 97.7875 52.6437 97.0842 53.1622 96.5657C53.6808 96.0472 54.384 95.7559 55.1173 95.7559H68.942C69.6753 95.7559 70.3785 96.0472 70.8971 96.5657C71.4156 97.0842 71.7069 97.7875 71.7069 98.5208C71.7069 99.2541 71.4156 99.9574 70.8971 100.476C70.3785 100.994 69.6753 101.286 68.942 101.286Z" fill="#0BAFEA"/>
</svg>
