<svg width="40" height="40" viewBox="0 0 40 40" fill="none" xmlns="http://www.w3.org/2000/svg">
<path d="M24.4648 20.0003L38.0815 6.41526C38.6778 5.81897 39.0128 5.01022 39.0128 4.16693C39.0128 3.32364 38.6778 2.51489 38.0815 1.9186C37.4852 1.3223 36.6764 0.987305 35.8331 0.987305C34.9899 0.987305 34.1811 1.3223 33.5848 1.9186L19.9998 15.5353L6.41481 1.9186C5.81851 1.3223 5.00976 0.987305 4.16647 0.987305C3.32318 0.987305 2.51444 1.3223 1.91814 1.9186C1.32184 2.51489 0.98685 3.32364 0.98685 4.16693C0.98685 5.01022 1.32184 5.81897 1.91814 6.41526L15.5348 20.0003L1.91814 33.5853C1.62133 33.8796 1.38575 34.2299 1.22498 34.6158C1.06422 35.0017 0.981445 35.4156 0.981445 35.8336C0.981445 36.2516 1.06422 36.6655 1.22498 37.0514C1.38575 37.4373 1.62133 37.7875 1.91814 38.0819C2.21252 38.3787 2.56276 38.6143 2.94865 38.7751C3.33453 38.9359 3.74844 39.0186 4.16647 39.0186C4.58451 39.0186 4.99841 38.9359 5.3843 38.7751C5.77019 38.6143 6.12042 38.3787 6.41481 38.0819L19.9998 24.4653L33.5848 38.0819C33.8792 38.3787 34.2294 38.6143 34.6153 38.7751C35.0012 38.9359 35.4151 39.0186 35.8331 39.0186C36.2512 39.0186 36.6651 38.9359 37.051 38.7751C37.4369 38.6143 37.7871 38.3787 38.0815 38.0819C38.3783 37.7875 38.6139 37.4373 38.7746 37.0514C38.9354 36.6655 39.0182 36.2516 39.0182 35.8336C39.0182 35.4156 38.9354 35.0017 38.7746 34.6158C38.6139 34.2299 38.3783 33.8796 38.0815 33.5853L24.4648 20.0003Z" fill="white"/>
</svg>
