<svg width="57" height="56" viewBox="0 0 57 56" fill="none" xmlns="http://www.w3.org/2000/svg">
<path d="M48.6591 11.2007H8.34082C7.44973 11.2007 6.59513 11.5547 5.96504 12.1848C5.33494 12.8149 4.98096 13.6695 4.98096 14.5605V41.4394C4.98096 42.3305 5.33494 43.1851 5.96504 43.8152C6.59513 44.4453 7.44973 44.7993 8.34082 44.7993H48.6591C49.5502 44.7993 50.4048 44.4453 51.0349 43.8152C51.665 43.1851 52.019 42.3305 52.019 41.4394V14.5605C52.019 13.6695 51.665 12.8149 51.0349 12.1848C50.4048 11.5547 49.5502 11.2007 48.6591 11.2007ZM44.9633 14.5605L28.5 25.9505L12.0367 14.5605H44.9633ZM8.34082 41.4394V16.0893L27.5424 29.3775C27.8236 29.5726 28.1577 29.6772 28.5 29.6772C28.8422 29.6772 29.1763 29.5726 29.4575 29.3775L48.6591 16.0893V41.4394H8.34082Z" fill="#313292" stroke="#313292"/>
</svg>
