<svg width="200" height="201" viewBox="0 0 200 201" fill="none" xmlns="http://www.w3.org/2000/svg">
<path d="M100 112.761C117.259 112.761 131.25 98.7704 131.25 81.5115C131.25 64.2526 117.259 50.2615 100 50.2615C82.7411 50.2615 68.75 64.2526 68.75 81.5115C68.75 98.7704 82.7411 112.761 100 112.761Z" stroke="#0B0B0C" stroke-width="11" stroke-linecap="round" stroke-linejoin="round"/>
<path d="M143.75 175.261C143.75 163.658 139.141 152.53 130.936 144.326C122.731 136.121 111.603 131.511 100 131.511C88.3968 131.511 77.2688 136.121 69.0641 144.326C60.8594 152.53 56.25 163.658 56.25 175.261H143.75Z" stroke="#0B0B0C" stroke-width="11" stroke-linecap="round" stroke-linejoin="round"/>
<path d="M150 87.7615C155.327 87.7615 160.565 86.3999 165.218 83.8059C169.87 81.212 173.782 77.4718 176.583 72.9406C179.383 68.4094 180.979 63.2375 181.218 57.9161C181.458 52.5947 180.333 47.3005 177.951 42.5361C175.569 37.7717 172.008 33.6953 167.607 30.694C163.207 27.6927 158.112 25.8661 152.806 25.3878C147.501 24.9094 142.162 25.7951 137.295 27.9607C132.428 30.1264 128.196 33.5001 125 37.7615" stroke="#0B0B0C" stroke-width="11" stroke-linecap="round" stroke-linejoin="round"/>
<path d="M156.25 150.261H193.75C193.75 138.658 189.141 127.53 180.936 119.326C172.731 111.121 161.603 106.511 150 106.511" stroke="#0B0B0C" stroke-width="11" stroke-linecap="round" stroke-linejoin="round"/>
<path d="M75 37.7615C71.8039 33.5001 67.5716 30.1264 62.705 27.9607C57.8383 25.7951 52.4988 24.9094 47.1936 25.3878C41.8883 25.8661 36.7934 27.6927 32.3927 30.694C27.9919 33.6953 24.4314 37.7717 22.0492 42.5361C19.667 47.3005 18.5422 52.5947 18.7816 57.9161C19.021 63.2375 20.6167 68.4094 23.4172 72.9406C26.2176 77.4718 30.1298 81.212 34.7824 83.8059C39.4349 86.3999 44.6732 87.7615 50 87.7615" stroke="#0B0B0C" stroke-width="11" stroke-linecap="round" stroke-linejoin="round"/>
<path d="M50 106.511C38.3968 106.511 27.2688 111.121 19.0641 119.326C10.8594 127.53 6.25 138.658 6.25 150.261H43.75" stroke="#0B0B0C" stroke-width="11" stroke-linecap="round" stroke-linejoin="round"/>
</svg>
