<svg width="51" height="61" viewBox="0 0 51 61" fill="none" xmlns="http://www.w3.org/2000/svg">
<path fill-rule="evenodd" clip-rule="evenodd" d="M42.0154 4.72361C42.0154 1.24395 41.6725 1.24023 38.0596 1.24023H12.6633C9.05405 1.24023 8.69991 1.24395 8.69991 4.72361H12.2903V15.6417L0.942749 53.9996C0.942749 57.4867 3.87005 60.3091 7.48303 60.3091H43.2323C46.8415 60.3091 49.7725 57.4867 49.7725 53.9996L38.5154 15.5302L38.4627 4.72361H42.0154ZM45.9637 51.6526C46.9846 54.9355 45.1989 56.9817 40.5687 56.9817H10.5233C5.24516 56.9817 3.94917 54.7795 5.12838 51.6526L15.6245 15.8088L15.583 4.61963H34.8912V15.7196L45.9637 51.6526Z" fill="#888992" stroke="#888992"/>
<path fill-rule="evenodd" clip-rule="evenodd" d="M31.1576 23.5215H19.78L12.8554 46.947C11.518 51.2177 11.9512 52.8294 18.16 52.8294H32.7739C38.9261 52.8294 39.0655 50.9057 38.0822 46.947L31.1576 23.5215Z" fill="#888992"/>
</svg>
