<svg width="150" height="150" viewBox="0 0 150 150" fill="none" xmlns="http://www.w3.org/2000/svg">
<g opacity="0.75">
<path d="M114.15 74.6773L136.563 52.2635L97.8488 13.5488L36.7203 74.6773" fill="#78B75B"/>
<path d="M55.0588 74.6764C55.0588 69.4622 57.0475 64.2479 61.027 60.2685C68.9839 52.3116 81.8861 52.3116 89.843 60.2685C93.8224 64.2479 95.8111 69.4622 95.8111 74.6764" fill="#669E4F"/>
<path d="M108.489 70.4403L105.606 67.557L121.455 51.7085L98.4009 28.6569L82.5524 44.5055L79.6691 41.6223L96.9583 24.3331C97.755 23.5384 99.0448 23.5364 99.8415 24.3331L125.778 50.2679C126.161 50.6509 126.373 51.1685 126.373 51.7085C126.373 52.2505 126.161 52.768 125.778 53.1511L108.489 70.4403Z" fill="#669E4F"/>
<path d="M99.8914 61.7617L102.773 58.8765L105.658 61.7576L102.777 64.6429L99.8914 61.7617Z" fill="#96CC7F"/>
<path d="M105.595 56.0547L108.477 53.1731L111.36 56.0561L108.478 58.9378L105.595 56.0547Z" fill="#96CC7F"/>
<path d="M85.4819 47.3809L88.3671 44.4997L91.2469 47.3835L88.3616 50.2647L85.4819 47.3809Z" fill="#96CC7F"/>
<path d="M91.1906 41.6426L94.0723 38.761L96.9553 41.644L94.0737 44.5256L91.1906 41.6426Z" fill="#96CC7F"/>
<path d="M14.3065 74.6777H136.563V127.656H14.3065V74.6777Z" fill="#96CC7F"/>
<path d="M75.435 121.543C86.6884 121.543 95.8111 112.421 95.8111 101.167C95.8111 89.9137 86.6884 80.791 75.435 80.791C64.1815 80.791 55.0588 89.9137 55.0588 101.167C55.0588 112.421 64.1815 121.543 75.435 121.543Z" fill="#78B75B"/>
<path d="M44.8707 127.656L53.0212 135.807L61.1717 127.656" fill="#78B75B"/>
<path d="M128.409 121.541H103.96V117.466H126.371V84.8662H103.96V80.791H128.409C129.536 80.791 130.447 81.7018 130.447 82.8286V119.506C130.447 120.63 129.536 121.541 128.409 121.541Z" fill="#669E4F"/>
<path d="M46.9063 121.543H22.457C21.3302 121.543 20.4193 120.63 20.4193 119.506V82.8286C20.4193 81.7018 21.3302 80.791 22.4549 80.791H46.9063L46.9084 84.8662H24.4946V117.468H46.9063V121.543Z" fill="#669E4F"/>
<path d="M103.96 109.316H108.033V113.392H103.96V109.316Z" fill="#78B75B"/>
<path d="M112.11 109.316H116.183V113.392H112.11V109.316Z" fill="#78B75B"/>
<path d="M103.96 88.9414H108.033V93.0166H103.96V88.9414Z" fill="#78B75B"/>
<path d="M112.11 88.9414H116.183V93.0166H112.11V88.9414Z" fill="#78B75B"/>
<path d="M34.6826 88.9414H38.7558V93.0166H34.6826V88.9414Z" fill="#78B75B"/>
<path d="M42.8331 88.9414H46.9063V93.0166H42.8331V88.9414Z" fill="#78B75B"/>
<path d="M34.6826 109.316H38.7558V113.392H34.6826V109.316Z" fill="#78B75B"/>
<path d="M42.8331 109.316H46.9063V113.392H42.8331V109.316Z" fill="#78B75B"/>
</g>
</svg>
