<svg width="64" height="65" viewBox="0 0 64 65" fill="none" xmlns="http://www.w3.org/2000/svg">
<path d="M50.0208 37.1821C52.5129 36.4718 55.4066 38.3253 54.4664 40.7401C53.6364 42.872 52.5018 44.8849 51.0884 46.7129C48.3001 50.3192 44.5424 53.0569 40.2549 54.6055C35.9675 56.1542 31.3277 56.4498 26.8784 55.4577C22.4291 54.4656 18.3544 52.2269 15.131 49.0035C11.9076 45.7801 9.66891 41.7054 8.67682 37.2561C7.68474 32.8068 7.98031 28.167 9.52896 23.8796C11.0776 19.5921 13.8153 15.8344 17.4216 13.0461C19.2497 11.6328 21.2625 10.4981 23.3944 9.66812C25.8093 8.72795 27.6627 11.6216 26.9524 14.1138C26.355 16.2097 26.1245 18.4106 26.2892 20.6185C26.6216 25.0771 28.5434 29.2683 31.7048 32.4297C34.8663 35.5911 39.0574 37.5129 43.516 37.8454C45.7239 38.01 47.9248 37.7795 50.0208 37.1821Z" stroke="#0B0B0C" stroke-width="5" stroke-linecap="round" stroke-linejoin="round"/>
</svg>
