<svg width="64" height="65" viewBox="0 0 64 65" fill="none" xmlns="http://www.w3.org/2000/svg">
<path d="M21.3162 25.9302C21.6975 25.5313 21.7296 24.9018 21.3582 24.4938L20.2185 23.2416C19.8461 22.8323 19.21 22.8015 18.8225 23.1966C18.3331 23.6957 17.8722 24.222 17.442 24.773C17.1022 25.2084 17.2155 25.8337 17.6686 26.1496L19.0566 27.1172C19.51 27.4333 20.1312 27.3192 20.477 26.888C20.7427 26.5567 21.0227 26.2371 21.3162 25.9302Z" fill="#0B0B0C" stroke="#0B0B0C" stroke-width="2"/>
<path d="M26.7414 22.3194C27.2574 22.1227 27.5569 21.5674 27.3961 21.0391L26.9036 19.4202C26.7429 18.892 26.1834 18.5913 25.6646 18.7804C25.0048 19.021 24.3594 19.2994 23.7316 19.6141C23.2378 19.8617 23.0726 20.4755 23.3469 20.9549L24.1881 22.4248C24.4626 22.9045 25.0728 23.0672 25.5699 22.8258C25.9528 22.64 26.3437 22.471 26.7414 22.3194Z" fill="#0B0B0C" stroke="#0B0B0C" stroke-width="2"/>
<path d="M50.4619 36.1251C50.4507 25.9335 42.1915 17.6743 31.9999 17.6631C31.8789 17.6631 31.758 17.6642 31.6374 17.6665C31.0848 17.677 30.6692 18.1583 30.7083 18.7096L30.8288 20.407C30.8679 20.9575 31.3458 21.3688 31.8977 21.3651C31.9341 21.3648 31.9706 21.3647 32.0073 21.3647C40.1501 21.3508 46.7624 27.9404 46.7763 36.0832C46.7806 38.5689 46.1565 41.0096 44.9693 43.181C44.7011 43.6716 44.0689 43.8025 43.6033 43.4929L39.1761 40.5486C34.8187 37.7089 29.1959 37.7089 24.8385 40.5486L20.4109 43.4931C19.9455 43.8027 19.3134 43.6719 19.045 43.1815C17.0903 39.6103 16.7032 35.3845 17.9768 31.5171C18.1495 30.9928 17.9071 30.4105 17.3958 30.2023L15.8288 29.5643C15.3171 29.356 14.7307 29.6015 14.5506 30.1237C12.8234 35.135 13.344 40.6526 15.9789 45.2524C16.2507 45.7268 16.1263 46.3382 15.6713 46.6414L4.11478 54.3425C3.65504 54.6489 3.53084 55.27 3.83742 55.7296L4.77675 57.1377C5.08316 57.5971 5.70389 57.7212 6.16333 57.4149L26.8804 43.6041C29.9919 41.5752 34.0079 41.5752 37.1194 43.6041L57.8365 57.4149C58.2959 57.7212 58.9167 57.5971 59.2231 57.1377L60.1624 55.7296C60.469 55.27 60.3448 54.6489 59.885 54.3425L48.3287 46.6415C47.8736 46.3382 47.7491 45.727 48.0211 45.2525C49.6108 42.4786 50.4548 39.3336 50.4619 36.1251Z" fill="#0B0B0C" stroke="#0B0B0C" stroke-width="2"/>
<path d="M33.8462 12.1246V8.43213C33.8462 7.41251 33.0196 6.58594 32 6.58594C30.9804 6.58594 30.1538 7.41251 30.1538 8.43213V12.1246C30.1538 13.1442 30.9804 13.9707 32 13.9707C33.0196 13.9707 33.8462 13.1442 33.8462 12.1246Z" fill="#0B0B0C" stroke="#0B0B0C" stroke-width="2"/>
<path d="M14.4893 16.0013L11.8784 13.3904C11.1575 12.6694 9.98853 12.6694 9.26755 13.3904C8.54657 14.1114 8.54657 15.2803 9.26755 16.0013L11.8784 18.6122C12.5994 19.3332 13.7684 19.3332 14.4893 18.6122C15.2103 17.8912 15.2103 16.7223 14.4893 16.0013Z" fill="#0B0B0C" stroke="#0B0B0C" stroke-width="2"/>
<path d="M59.6929 34.2793H56.0005C54.9809 34.2793 54.1543 35.1059 54.1543 36.1255C54.1543 37.1451 54.9809 37.9717 56.0005 37.9717H59.6929C60.7125 37.9717 61.5391 37.1451 61.5391 36.1255C61.5391 35.1059 60.7125 34.2793 59.6929 34.2793Z" fill="#0B0B0C" stroke="#0B0B0C" stroke-width="2"/>
<path d="M7.99929 34.2793H4.30691C3.28727 34.2793 2.46069 35.1059 2.46069 36.1255C2.46069 37.1451 3.28727 37.9717 4.30691 37.9717H7.99929C9.01893 37.9717 9.8455 37.1451 9.8455 36.1255C9.8455 35.1059 9.01893 34.2793 7.99929 34.2793Z" fill="#0B0B0C" stroke="#0B0B0C" stroke-width="2"/>
<path d="M52.124 18.6122L54.7349 16.0013C55.4559 15.2803 55.4559 14.1114 54.7349 13.3904C54.0139 12.6694 52.845 12.6694 52.124 13.3904L49.5131 16.0013C48.7921 16.7223 48.7921 17.8912 49.5131 18.6122C50.2341 19.3332 51.403 19.3332 52.124 18.6122Z" fill="#0B0B0C" stroke="#0B0B0C" stroke-width="2"/>
</svg>
