<svg width="56" height="56" viewBox="0 0 56 56" fill="none" xmlns="http://www.w3.org/2000/svg">
<path fill-rule="evenodd" clip-rule="evenodd" d="M4.6665 22.7501C4.6665 21.4614 5.71117 20.4167 6.99984 20.4167H48.9998C50.2885 20.4167 51.3332 21.4614 51.3332 22.7501V49.0001C51.3332 50.2887 50.2885 51.3334 48.9998 51.3334H6.99984C5.71117 51.3334 4.6665 50.2887 4.6665 49.0001V22.7501ZM9.33317 25.0834V46.6667H46.6665V25.0834H9.33317Z" fill="#313292"/>
<path fill-rule="evenodd" clip-rule="evenodd" d="M27.9998 9.33341C22.123 9.33341 17.2082 14.3082 17.2082 20.6291C17.2082 21.9177 16.1635 22.9624 14.8748 22.9624C13.5862 22.9624 12.5415 21.9177 12.5415 20.6291C12.5415 11.8982 19.3815 4.66675 27.9998 4.66675C36.6182 4.66675 43.4582 11.8982 43.4582 20.6291C43.4582 21.9177 42.4135 22.9624 41.1248 22.9624C39.8362 22.9624 38.7915 21.9177 38.7915 20.6291C38.7915 14.3082 33.8767 9.33341 27.9998 9.33341Z" fill="#313292"/>
<path fill-rule="evenodd" clip-rule="evenodd" d="M27.9998 32.0266C29.2885 32.0266 30.3332 33.0713 30.3332 34.3599V36.9849C30.3332 38.2736 29.2885 39.3183 27.9998 39.3183C26.7112 39.3183 25.6665 38.2736 25.6665 36.9849V34.3599C25.6665 33.0713 26.7112 32.0266 27.9998 32.0266Z" fill="#313292"/>
</svg>
