<svg width="149" height="148" viewBox="0 0 149 148" fill="none" xmlns="http://www.w3.org/2000/svg">
<path d="M105.851 35.1827C103.191 32.6514 99.3326 31.8282 95.8693 33.0528C94.89 33.3799 94.1767 34.2283 94.0234 35.2486L93.2542 40.5296C92.088 48.5062 85.2579 54.43 77.1908 54.4622H66.2035C64.9427 54.4624 63.8441 55.3203 63.539 56.5426L55.2985 89.4801C54.9313 90.951 55.8269 92.4406 57.2989 92.8075C57.516 92.8616 57.739 92.8891 57.9628 92.8891H71.6967C72.9575 92.8889 74.0561 92.0309 74.3612 90.8087L79.333 70.9309H90.0456C98.2691 70.9582 105.443 65.3573 107.405 57.3771L109.433 49.2581C110.86 44.2639 109.492 38.8892 105.851 35.1827Z" fill="#03A9F4"/>
<path d="M16.7614 125.826C15.2444 125.826 14.0147 124.597 14.0153 123.081C14.0153 122.857 14.0428 122.634 14.0969 122.418L16.8438 111.493V111.378L19.5907 100.459C19.8958 99.2371 20.9944 98.3792 22.2552 98.3789H29.2431C33.0357 98.3781 36.1107 101.45 36.1117 105.239C36.1117 105.801 36.043 106.36 35.907 106.904L35.2202 109.649C34.4562 112.705 31.7085 114.848 28.5565 114.848H21.6562L19.4313 123.746C19.1256 124.97 18.024 125.829 16.7614 125.826ZM23.0295 109.358H28.556C29.1862 109.356 29.7341 108.926 29.8856 108.315L30.5724 105.57C30.7606 104.839 30.3197 104.094 29.5881 103.906C29.4753 103.877 29.3595 103.862 29.2428 103.863H24.4028L23.0295 109.358Z" fill="#283593"/>
<path d="M46.1357 125.828H42.2243C38.0191 125.829 34.6094 122.423 34.6083 118.221C34.6081 117.599 34.6846 116.979 34.8355 116.375L35.198 114.915C36.011 111.637 38.9608 109.34 42.3397 109.354H46.251C50.4562 109.361 53.8593 112.773 53.8521 116.975C53.851 117.595 53.7743 118.211 53.6237 118.812L53.2611 120.272C52.4473 123.542 49.5068 125.834 46.1357 125.828ZM40.1696 117.709C39.8874 118.845 40.5801 119.994 41.7167 120.276C41.8828 120.317 42.0531 120.338 42.2243 120.338H46.1357C46.9826 120.341 47.7217 119.765 47.9267 118.944L48.2893 117.484C48.5715 116.348 47.8788 115.199 46.7421 114.917C46.576 114.875 46.4058 114.855 46.2346 114.854H42.3232C41.4762 114.852 40.7372 115.427 40.5322 116.249L40.1696 117.709Z" fill="#283593"/>
<path d="M49.7231 125.827C48.2061 125.826 46.9767 124.597 46.977 123.081C46.977 122.858 47.0045 122.635 47.0586 122.418L49.8055 111.439C50.1727 109.967 51.6643 109.071 53.1375 109.438C54.6105 109.805 55.5071 111.295 55.1399 112.767L52.393 123.746C52.0873 124.971 50.9857 125.829 49.7231 125.827Z" fill="#283593"/>
<path d="M82.6849 125.827C81.1679 125.826 79.9386 124.597 79.9388 123.081C79.9388 122.857 79.9664 122.635 80.0204 122.418L82.7673 111.493V111.378L85.5142 100.459C85.8194 99.2371 86.9179 98.3792 88.1787 98.3789H95.1666C98.9593 98.3781 102.034 101.45 102.035 105.239C102.035 105.801 101.967 106.36 101.831 106.904L101.144 109.649C100.38 112.705 97.632 114.848 94.4801 114.848H87.58L85.3551 123.746C85.0492 124.971 83.9475 125.829 82.6849 125.827ZM88.9531 109.358H94.4852C95.1154 109.356 95.6634 108.926 95.8148 108.315L96.5016 105.57C96.6896 104.839 96.2489 104.094 95.5174 103.906C95.4046 103.877 95.2884 103.862 95.172 103.863H90.3266L88.9531 109.358Z" fill="#03A9F4"/>
<path d="M112.059 125.828H108.148C103.943 125.829 100.533 122.423 100.532 118.221C100.532 117.599 100.608 116.979 100.759 116.375L101.122 114.915C101.935 111.637 104.884 109.34 108.263 109.354H112.175C116.38 109.353 119.79 112.758 119.791 116.96C119.791 117.583 119.714 118.203 119.563 118.807L119.201 120.267C118.388 123.544 115.438 125.841 112.059 125.828ZM106.093 117.709C105.811 118.845 106.504 119.994 107.64 120.276C107.806 120.317 107.977 120.338 108.148 120.338H112.059C112.906 120.341 113.645 119.765 113.85 118.944L114.213 117.484C114.495 116.348 113.802 115.199 112.666 114.917C112.5 114.875 112.329 114.855 112.158 114.854H108.247C107.4 114.852 106.661 115.427 106.456 116.249L106.093 117.709Z" fill="#03A9F4"/>
<path d="M115.647 125.827C114.13 125.826 112.9 124.597 112.901 123.081C112.901 122.858 112.928 122.635 112.982 122.418L115.729 111.439C116.096 109.967 117.588 109.071 119.061 109.438C120.534 109.805 121.431 111.295 121.063 112.767L118.317 123.746C118.011 124.971 116.909 125.829 115.647 125.827Z" fill="#03A9F4"/>
<path d="M66.204 123.083C65.2852 123.082 64.4276 122.623 63.9185 121.859L58.425 113.624C57.5829 112.363 57.9236 110.659 59.186 109.817C60.4483 108.976 62.1538 109.316 62.9959 110.578L68.4894 118.812C69.3328 120.072 68.9944 121.777 67.7336 122.62C67.2809 122.922 66.7484 123.083 66.204 123.083Z" fill="#283593"/>
<path d="M60.7104 131.318C59.1934 131.318 57.964 130.088 57.9645 128.572C57.9648 127.931 58.1899 127.31 58.6009 126.816L72.3348 110.348C73.3072 109.184 75.04 109.027 76.205 109.999C77.37 110.971 77.5263 112.702 76.5539 113.866L62.82 130.335C62.2975 130.959 61.5247 131.319 60.7104 131.318Z" fill="#283593"/>
<path d="M126.634 125.825C125.117 125.825 123.887 124.596 123.887 123.08C123.887 122.856 123.915 122.633 123.969 122.416L129.463 100.458C129.83 98.9863 131.321 98.0903 132.795 98.4572C134.268 98.8241 135.164 100.315 134.797 101.787L129.304 123.745C128.998 124.969 127.896 125.828 126.634 125.825Z" fill="#03A9F4"/>
<path d="M96.7814 20.7855C94.1421 17.7648 90.3237 16.0333 86.3106 16.0371H55.2166C53.8881 16.0371 52.7501 16.9872 52.5138 18.2933L41.5264 78.6785C41.2563 80.1702 42.2477 81.5981 43.7405 81.868C43.9017 81.8971 44.0655 81.9118 44.2293 81.9118H60.7101C61.9709 81.9115 63.0695 81.0536 63.3746 79.8313L68.3519 59.9536H77.191C87.9958 59.9111 97.1427 51.9734 98.6985 41.2891L100.072 31.9073C100.638 27.899 99.4379 23.842 96.7814 20.7855Z" fill="#283593"/>
</svg>
