<svg width="70" height="61" viewBox="0 0 70 61" fill="none" xmlns="http://www.w3.org/2000/svg">
<path d="M4.04189 59.0201C3.81464 59.0518 3.58408 59.0518 3.35682 59.0201C2.89529 58.8702 2.49591 58.5726 2.22032 58.1732C1.94474 57.7738 1.80827 57.2948 1.83199 56.8102V54.6003C1.83286 44.614 5.39291 34.9551 11.8732 27.357C18.3534 19.7589 27.3295 14.7192 37.1905 13.1424V3.77241C37.1905 3.362 37.3048 2.9597 37.5205 2.61059C37.7363 2.26148 38.045 1.97935 38.4121 1.79581C38.7792 1.61227 39.1901 1.53457 39.5989 1.57143C40.0076 1.60829 40.398 1.75824 40.7263 2.00448L67.2452 21.8936C67.5197 22.0995 67.7424 22.3664 67.8959 22.6733C68.0493 22.9801 68.1292 23.3185 68.1292 23.6616C68.1292 24.0046 68.0493 24.343 67.8959 24.6499C67.7424 24.9567 67.5197 25.2236 67.2452 25.4295L40.7263 45.3186C40.398 45.5649 40.0076 45.7148 39.5989 45.7517C39.1901 45.7886 38.7792 45.7109 38.4121 45.5273C38.045 45.3438 37.7363 45.0617 37.5205 44.7125C37.3048 44.3634 37.1905 43.9611 37.1905 43.5507V35.2636C26.4893 37.0101 16.9066 42.9011 10.5169 51.6611L5.83192 58.114C5.62619 58.3955 5.35676 58.6244 5.04565 58.7819C4.73454 58.9394 4.39059 59.021 4.04189 59.0201ZM41.6103 8.19222V15.0871C41.6136 15.6334 41.4144 16.1616 41.0512 16.5697C40.688 16.9778 40.1865 17.2369 39.6435 17.297C31.3106 18.2061 23.5212 21.8759 17.5145 27.7224C11.5077 33.569 7.62883 41.2564 6.49489 49.5617L6.84848 49.0976C10.6302 43.9049 15.4642 39.5679 21.035 36.3693C26.6058 33.1707 32.7884 31.1825 39.1794 30.5344C39.4875 30.5057 39.7981 30.542 40.0912 30.641C40.3844 30.74 40.6534 30.8994 40.881 31.109C41.11 31.3156 41.2931 31.5678 41.4187 31.8494C41.5443 32.1311 41.6096 32.4359 41.6103 32.7443V39.1309L62.2287 23.6616L41.6103 8.19222Z" fill="#888992" stroke="#888992" stroke-width="2"/>
</svg>
