<svg width="354" height="478" viewBox="0 0 354 478" fill="none" xmlns="http://www.w3.org/2000/svg">
<path d="M353.379 134.714C353.379 155.972 353.506 177.357 353.506 198.614C334.713 198.87 315.919 199.639 297.252 199.382C289.252 199.254 287.474 201.815 287.601 209.371C287.982 235.494 287.474 261.617 287.982 287.741C288.109 296.192 286.458 299.778 277.188 299.266C259.664 298.497 242.013 298.497 224.489 299.266C215.854 299.65 214.33 296.32 214.33 288.509C214.584 240.872 214.457 193.236 214.584 145.599C214.584 136.635 213.441 128.056 210.393 119.604C201.377 94.3769 179.282 82.5958 153.504 89.3827C118.709 98.6027 92.1693 129.72 86.9629 166.984C81.3755 207.962 92.2963 245.738 110.201 281.466C142.583 346.134 194.52 392.618 252.68 432.956C270.204 445.121 288.617 455.878 306.649 467.275C309.442 469.067 313.633 470.732 312.744 474.318C311.601 478.8 307.284 476.623 304.109 475.982C220.044 459.207 143.091 427.065 76.55 371.361C18.6444 322.828 -2.05429 259.184 0.739399 185.937C2.39022 142.782 13.184 101.932 38.3273 65.9486C80.1056 6.53079 169.123 -16.7753 233.632 15.4947C256.743 27.0197 271.22 47.2525 279.982 71.3269C286.204 88.3583 290.14 106.03 291.41 124.214C291.918 131.513 294.331 134.074 301.95 133.946C319.093 133.818 336.236 134.458 353.379 134.714Z" fill="#F2F2F2"/>
</svg>
