<svg width="64" height="65" viewBox="0 0 64 65" fill="none" xmlns="http://www.w3.org/2000/svg">
<path fill-rule="evenodd" clip-rule="evenodd" d="M21.5901 47.9114C22.5665 48.8877 24.1494 48.8877 25.1257 47.9114L53.41 19.6271C54.3863 18.6508 54.3863 17.0679 53.41 16.0916C52.4336 15.1153 50.8507 15.1153 49.8744 16.0916L21.5901 44.3759C20.6138 45.3522 20.6138 46.9351 21.5901 47.9114Z" fill="#888992" stroke="#888992" stroke-width="2"/>
<path fill-rule="evenodd" clip-rule="evenodd" d="M10.429 33.4315C11.4053 32.4551 12.9882 32.4551 13.9645 33.4315L24.5711 44.0381C25.5475 45.0144 25.5475 46.5973 24.5711 47.5736C23.5948 48.5499 22.0119 48.5499 21.0356 47.5736L10.429 36.967C9.4527 35.9907 9.4527 34.4078 10.429 33.4315Z" fill="#888992" stroke="#888992" stroke-width="2"/>
</svg>
